<svg xmlns="http://www.w3.org/2000/svg" width="512" height="512" fill="none" viewBox="0 0 512 512"><defs><filter id="yellowGlow" width="140%" height="140%" x="-20%" y="-20%"><feGaussianBlur result="blur" stdDeviation="15"/><feComposite in="SourceGraphic" in2="blur" operator="over"/></filter><filter id="redGlow" width="140%" height="140%" x="-20%" y="-20%"><feGaussianBlur result="blur" stdDeviation="10"/><feComposite in="SourceGraphic" in2="blur" operator="over"/></filter><filter id="blueGlow" width="140%" height="140%" x="-20%" y="-20%"><feGaussianBlur result="blur" stdDeviation="12"/><feComposite in="SourceGraphic" in2="blur" operator="over"/></filter></defs><rect width="512" height="512" fill="#000"/><path fill="none" stroke="gold" stroke-width="8" d="M256 60L466 410H46L256 60Z" filter="url(#yellowGlow)"/><path fill="none" stroke="gold" stroke-width="2" d="M256 80L440 395H72L256 80Z" opacity=".5"/><g filter="url(#redGlow)" transform="translate(256, 300)"><path fill="#400" d="M0 -60 L60 -30 V30 L0 60 L-60 30 V-30 Z" opacity=".3"/><path fill="none" stroke="#F44" stroke-width="6" d="M0 -60 L60 -30 V30 L0 60 L-60 30 V-30 Z"/><path stroke="#F44" stroke-width="4" d="M0 -60 V60"/><path stroke="#F44" stroke-width="4" d="M0 0 L60 -30"/><path stroke="#F44" stroke-width="4" d="M0 0 L-60 -30"/></g><circle cx="256" cy="300" r="45" fill="none" stroke="#44F" stroke-width="10" filter="url(#blueGlow)"/><circle cx="256" cy="300" r="45" fill="radial-gradient(circle, #0000FF 0%, transparent 70%)" opacity=".4"/><circle cx="256" cy="300" r="10" fill="#FFF" filter="url(#blueGlow)"><animate attributeName="r" dur="2s" repeatCount="indefinite" values="8;12;8"/></circle><text x="256" y="480" fill="#FFF" font-family="JetBrains Mono, monospace" font-size="28" font-weight="bold" letter-spacing="6" text-anchor="middle">arifOS MCP</text><text x="256" y="500" fill="#666" font-family="JetBrains Mono, monospace" font-size="10" letter-spacing="2" text-anchor="middle">DITEMPA BUKAN DIBERI</text></svg>